<?xml version="1.0" standalone="no"?>
<!DOCTYPE svg PUBLIC "-//W3C//DTD SVG 20010904//EN"
 "http://www.w3.org/TR/2001/REC-SVG-20010904/DTD/svg10.dtd">
<svg version="1.0" xmlns="http://www.w3.org/2000/svg"
 width="796.000000pt" height="790.000000pt" viewBox="0 0 796.000000 790.000000"
 preserveAspectRatio="xMidYMid meet">
<metadata>
Created by potrace 1.16, written by Peter Selinger 2001-2019
</metadata>
<g transform="translate(0.000000,790.000000) scale(0.100000,-0.100000)"
fill="#000000" stroke="none">
<path d="M0 3950 l0 -3950 1985 0 1985 0 0 978 0 978 -66 180 c-36 98 -137
377 -225 619 -88 242 -170 454 -182 470 -30 43 -541 647 -563 667 -11 9 -131
80 -268 159 l-249 142 -195 34 -196 34 -128 -22 c-112 -19 -139 -28 -206 -66
-115 -64 -181 -151 -182 -235 0 -21 -4 -38 -10 -38 -5 0 -10 7 -10 16 0 14 -3
14 -15 4 -28 -23 -27 -3 1 39 34 52 26 61 -19 22 -38 -34 -52 -39 -43 -16 3 9
0 15 -9 15 -28 0 -15 18 18 25 42 9 100 47 126 83 l21 29 -48 -10 c-49 -10
-97 -38 -120 -69 -16 -22 -36 -24 -28 -3 3 9 0 15 -9 15 -30 0 -14 20 25 30
59 16 59 30 1 30 -28 0 -51 5 -51 10 0 6 6 10 13 10 8 0 8 3 -2 9 -12 8 -13
12 -1 25 11 14 10 16 -3 11 -8 -4 -18 -2 -21 4 -4 6 10 15 31 21 68 18 73 30
16 30 -29 0 -53 5 -53 10 0 6 5 10 11 10 8 0 9 4 0 13 -19 24 0 27 37 6 38
-19 118 -25 156 -10 36 14 -68 56 -136 55 -32 -1 -58 3 -58 8 0 4 8 8 18 9 10
0 12 3 5 6 -22 8 -14 32 12 39 l25 6 -23 19 c-17 15 -19 20 -8 28 9 6 10 11 2
15 -25 16 2 25 30 10 38 -19 115 -28 154 -16 l30 9 -45 23 c-33 18 -62 24
-107 25 -59 0 -75 6 -53 20 5 3 7 12 3 20 -7 19 1 19 38 -1 17 -8 38 -14 47
-12 12 3 6 12 -26 35 -24 17 -38 34 -32 38 5 3 14 3 20 0 6 -3 7 1 4 9 -4 11
0 16 12 16 14 0 15 3 6 12 -16 16 -15 32 1 25 6 -3 29 -12 50 -21 22 -10 37
-12 37 -6 0 6 -8 13 -17 17 -22 8 -53 39 -53 52 0 6 7 8 15 5 9 -4 15 0 15 9
0 9 8 23 17 33 13 13 14 19 5 22 -7 2 -10 8 -6 13 6 10 53 2 69 -12 5 -5 15
-9 23 -9 21 0 -3 27 -40 46 -29 15 -31 38 -3 27 11 -4 13 -1 9 11 -4 11 -1 16
11 16 15 0 15 3 5 15 -16 20 -5 32 14 16 8 -7 28 -16 46 -21 39 -11 37 6 -6
35 -32 21 -42 42 -19 37 10 -2 13 3 9 13 -12 31 16 14 29 -18 16 -38 60 -84
105 -110 l31 -18 -11 33 c-16 46 -58 104 -90 123 -29 17 -39 41 -13 31 9 -3
15 0 15 10 0 12 7 15 25 12 22 -5 25 -2 25 23 0 21 4 27 15 22 10 -3 15 -1 13
7 -7 30 19 17 31 -15 7 -20 19 -35 28 -35 13 0 13 3 3 15 -19 23 -5 29 24 10
23 -16 26 -16 20 -1 -3 8 -21 25 -40 37 -34 21 -48 46 -19 35 9 -3 15 0 15 9
0 22 18 18 25 -5 3 -11 11 -20 16 -20 6 0 8 4 4 9 -3 5 -1 12 4 16 6 3 7 13 4
22 -5 13 0 15 30 11 41 -4 48 5 17 24 -24 15 -26 28 -5 28 8 0 15 7 15 15 0
27 16 16 28 -19 7 -19 19 -40 28 -47 13 -11 14 -9 9 14 -5 17 -3 27 4 27 6 0
11 -6 11 -12 0 -9 3 -9 9 1 7 11 1 21 -22 38 -31 23 -36 41 -10 35 8 -2 10 3
7 13 -7 18 -4 18 30 5 25 -9 26 -8 21 21 -5 28 -3 31 14 26 13 -3 18 -1 15 8
-3 7 -1 16 5 19 5 3 15 -9 21 -28 15 -45 130 -149 130 -117 0 36 -53 115 -96
142 -34 20 -39 44 -7 32 10 -4 14 -2 9 5 -3 6 -2 13 4 17 5 3 16 -10 24 -28
24 -59 40 -58 32 1 -4 32 -3 52 3 52 5 0 12 -8 14 -17 4 -16 5 -16 6 1 1 12 6
16 16 12 9 -3 15 0 15 9 0 27 19 16 34 -19 15 -36 36 -56 36 -33 0 7 -3 17 -6
20 -4 4 -8 20 -9 37 -3 30 8 40 21 19 5 -8 9 -8 14 1 4 7 19 13 34 13 16 1 24
7 21 15 -2 6 2 12 10 12 8 0 15 -7 15 -15 0 -8 5 -15 10 -15 6 0 10 -9 10 -19
0 -11 5 -23 11 -27 9 -5 10 7 5 44 -4 34 -3 52 4 52 5 0 10 -6 10 -12 0 -9 3
-9 9 1 5 8 16 11 24 8 11 -4 13 0 10 14 -10 36 14 19 31 -23 17 -41 18 -42 27
-20 6 15 5 31 -2 43 -13 25 0 49 14 24 8 -14 11 -15 19 -4 7 11 11 11 15 2 2
-7 11 -13 19 -13 9 0 13 4 9 9 -3 5 0 13 6 17 6 3 15 0 20 -7 8 -14 11 -10 13
21 1 8 9 14 19 12 11 -2 15 2 11 13 -3 8 -1 15 5 15 7 0 15 -8 18 -17 4 -10
15 -29 25 -42 l18 -24 0 27 c0 15 -5 36 -10 46 -13 25 5 37 19 13 10 -17 10
-17 11 1 0 12 5 16 15 12 9 -3 15 0 15 9 0 24 19 17 26 -9 7 -31 44 -67 44
-44 0 8 -3 18 -7 22 -11 10 -12 66 -2 66 4 0 11 -5 14 -10 4 -6 12 -4 22 6 9
8 24 13 34 11 11 -3 16 0 13 8 -3 7 -1 16 5 19 5 4 12 -3 16 -14 3 -11 11 -20
16 -20 5 0 9 -9 9 -19 0 -11 5 -23 10 -26 13 -8 13 36 0 69 -7 21 -6 26 5 26
8 0 15 -6 15 -12 0 -7 5 -5 11 5 6 9 14 15 20 12 5 -4 9 1 9 9 0 28 18 17 30
-18 14 -44 40 -68 40 -38 0 11 -5 33 -10 47 -11 30 -3 55 11 34 8 -12 11 -12
18 1 17 25 23 3 11 -36 -13 -40 -9 -102 10 -149 l12 -30 13 35 c16 42 19 119
5 154 -11 30 4 45 19 19 10 -17 10 -17 11 0 0 25 14 21 30 -8 l13 -25 18 26
c15 23 18 24 26 9 9 -16 10 -16 16 0 4 9 11 13 17 10 7 -4 7 -12 0 -25 -13
-25 -13 -57 2 -66 8 -5 9 -2 5 9 -12 32 13 27 27 -5 18 -41 21 -12 5 45 -11
40 -5 62 10 38 6 -9 11 -10 15 -2 13 21 25 0 19 -32 l-6 -32 26 29 27 29 26
-28 26 -28 -2 29 c-3 45 0 50 15 30 13 -17 15 -18 15 -3 0 9 5 17 11 17 7 0 9
-10 5 -27 -3 -16 -8 -44 -11 -63 l-5 -35 15 33 c15 32 40 37 28 5 -5 -11 -3
-14 6 -8 9 5 11 21 7 54 -6 39 -5 44 7 29 12 -15 14 -15 24 0 9 15 12 13 25
-11 l14 -28 14 25 c14 27 30 34 30 15 0 -8 4 -9 13 0 20 16 27 3 16 -26 -19
-51 -4 -163 23 -163 11 0 10 27 0 34 -12 7 -13 66 -1 66 5 0 9 -5 9 -11 0 -5
4 -7 10 -4 13 8 13 51 0 76 -13 24 -2 48 12 28 7 -11 11 -11 15 -1 2 6 9 12
15 12 9 0 7 -22 -8 -72 -10 -35 25 -18 37 17 13 34 29 47 29 22 0 -8 14 -12
40 -12 26 0 40 4 40 12 0 25 16 12 29 -22 7 -19 19 -35 27 -35 17 0 17 7 3 49
-12 34 -4 55 12 31 7 -13 10 -13 18 -1 15 23 20 -3 8 -47 -8 -32 -8 -45 1 -54
9 -9 12 -9 12 0 0 7 4 12 9 12 12 0 11 -59 -1 -66 -10 -7 -11 -34 0 -34 27 0
42 112 22 164 -11 30 4 45 19 19 10 -17 10 -17 11 0 0 25 14 21 30 -9 l14 -25
14 27 c13 24 16 26 26 12 11 -15 13 -15 24 0 10 14 11 8 6 -29 -4 -32 -2 -49
7 -54 9 -6 11 -3 6 8 -12 32 13 27 28 -5 l15 -33 -5 35 c-3 19 -8 47 -11 63
-4 17 -2 27 5 27 6 0 11 -8 11 -17 0 -15 2 -14 15 3 15 20 18 15 15 -30 l-2
-29 26 28 26 28 27 -29 26 -29 -6 32 c-6 32 6 55 16 31 4 -10 8 -9 16 2 17 24
23 4 12 -37 -16 -57 -13 -86 5 -45 14 32 39 37 27 5 -4 -11 -3 -14 5 -9 15 9
15 41 2 66 -7 13 -7 21 0 25 6 3 13 -1 16 -10 6 -14 8 -14 19 2 11 15 14 14
27 -11 l14 -27 14 25 c16 30 30 34 30 9 1 -17 1 -17 11 0 15 26 30 11 19 -19
-14 -35 -11 -112 5 -154 l13 -35 12 30 c19 47 23 109 10 149 -12 39 -6 61 11
36 7 -13 10 -13 18 -1 14 21 22 -4 11 -34 -5 -14 -10 -36 -10 -47 0 -30 26 -6
40 38 12 35 30 46 30 18 0 -8 4 -13 9 -9 6 3 14 -3 20 -12 6 -10 11 -12 11 -5
0 6 7 12 15 12 11 0 12 -5 5 -26 -13 -33 -13 -77 0 -69 5 3 10 15 10 26 0 10
4 19 9 19 5 0 13 9 16 20 4 11 11 18 16 14 6 -3 8 -11 6 -18 -4 -10 11 -14 69
-17 17 -1 21 -7 20 -29 -1 -16 -5 -32 -9 -36 -4 -4 -7 -14 -7 -22 0 -23 37 13
44 44 7 26 26 33 26 9 0 -9 6 -12 15 -9 8 4 15 1 15 -6 0 -10 3 -10 14 -1 17
15 28 1 15 -19 -5 -8 -9 -28 -9 -44 l0 -29 18 24 c10 13 21 32 25 42 3 9 11
17 18 17 6 0 8 -7 5 -15 -4 -11 0 -15 11 -13 10 2 18 -4 19 -12 2 -31 5 -35
13 -21 5 7 14 10 20 7 6 -4 9 -12 6 -17 -4 -5 0 -9 9 -9 8 0 17 6 19 13 4 9 8
9 15 -2 8 -11 11 -10 19 4 14 25 27 1 14 -24 -7 -12 -8 -28 -2 -43 9 -22 10
-21 27 19 9 23 21 40 26 37 5 -3 7 -12 4 -20 -3 -8 0 -11 11 -7 8 3 19 0 24
-8 6 -10 9 -10 9 -1 0 6 5 12 10 12 7 0 8 -18 4 -52 -5 -37 -4 -49 5 -44 6 4
11 16 11 27 0 10 5 19 10 19 6 0 10 7 10 15 0 8 7 15 16 15 9 0 14 -6 11 -12
-3 -8 5 -14 21 -15 13 0 28 -6 32 -13 5 -9 9 -9 14 -1 13 21 24 11 21 -19 -1
-17 -5 -33 -9 -37 -3 -3 -6 -13 -6 -21 0 -22 25 2 40 38 13 32 30 40 30 15 0
-8 6 -12 14 -9 8 3 16 -2 19 -13 4 -16 5 -16 6 0 0 9 6 17 11 17 7 0 8 -18 4
-52 -8 -59 8 -60 32 -1 8 18 19 31 24 28 6 -4 7 -11 4 -17 -5 -7 -1 -9 9 -5
32 12 27 -12 -7 -32 -43 -27 -96 -106 -96 -142 0 -32 115 72 130 117 6 19 16
31 21 28 6 -3 8 -12 5 -19 -3 -9 2 -11 15 -8 17 5 19 2 14 -26 -5 -29 -4 -30
21 -21 34 13 37 13 30 -5 -4 -10 -1 -15 9 -13 26 5 20 -11 -12 -35 -23 -17
-29 -27 -22 -38 6 -10 9 -10 9 -1 0 6 5 12 11 12 7 0 9 -10 4 -27 -5 -23 -4
-25 9 -14 9 7 21 28 28 47 12 35 28 46 28 19 0 -8 7 -15 15 -15 21 0 19 -13
-5 -28 -30 -19 -25 -32 10 -22 30 9 47 -1 35 -19 -3 -5 -1 -12 5 -16 6 -4 8
-11 5 -16 -4 -5 -2 -9 4 -9 5 0 13 9 16 20 7 23 25 27 25 5 0 -9 6 -12 15 -9
26 11 16 -14 -13 -32 -16 -9 -35 -26 -42 -37 -12 -21 -12 -21 12 -5 28 18 44
13 27 -9 -9 -10 -8 -13 3 -13 8 0 23 17 33 38 14 28 19 33 23 19 2 -11 9 -16
18 -13 10 4 14 -3 14 -23 0 -25 3 -28 25 -23 18 3 25 0 25 -12 0 -10 6 -13 15
-10 26 10 16 -14 -12 -31 -33 -19 -75 -77 -91 -123 l-11 -33 30 18 c44 26 89
73 105 111 14 31 42 47 30 17 -3 -10 -1 -15 7 -13 23 5 13 -17 -17 -37 -43
-29 -45 -46 -6 -35 18 5 38 14 46 21 19 16 30 4 14 -16 -10 -12 -10 -15 5 -15
11 0 15 -5 11 -16 -4 -12 -1 -14 14 -9 30 10 24 -12 -8 -29 -37 -19 -61 -46
-40 -46 8 0 18 4 23 9 16 14 63 22 70 11 3 -5 2 -10 -3 -10 -5 0 -2 -16 7 -35
9 -19 22 -32 29 -30 6 2 12 0 12 -6 0 -13 -31 -44 -52 -52 -10 -4 -18 -11 -18
-17 0 -6 15 -4 38 6 20 9 43 18 50 21 15 7 16 -9 0 -25 -9 -9 -8 -12 6 -12 12
0 16 -5 12 -16 -3 -8 -2 -12 4 -9 6 3 15 3 20 0 6 -4 -8 -21 -32 -38 -32 -23
-38 -32 -26 -35 9 -2 30 4 47 12 39 21 44 20 36 -4 -4 -11 -2 -20 4 -20 6 0
11 -3 11 -7 0 -5 -28 -8 -62 -8 -46 -1 -75 -7 -108 -25 l-45 -23 30 -9 c39
-12 116 -3 154 16 28 15 55 6 30 -10 -8 -4 -7 -9 2 -15 11 -8 9 -13 -8 -28
l-23 -19 25 -6 c26 -7 34 -31 13 -39 -8 -3 -6 -6 5 -6 9 -1 17 -5 17 -10 0 -5
-26 -9 -57 -8 -43 1 -71 -5 -107 -22 -47 -23 -48 -25 -25 -34 34 -12 132 -2
161 17 27 18 44 11 27 -11 -9 -9 -8 -13 0 -13 6 0 11 -4 11 -10 0 -5 -24 -10
-52 -10 -58 0 -53 -12 15 -30 21 -6 35 -15 31 -21 -3 -6 -13 -8 -21 -4 -13 5
-14 3 -3 -11 12 -13 11 -17 -1 -25 -10 -6 -10 -9 -1 -9 6 0 12 -6 12 -12 0 -9
-17 -12 -57 -10 -64 3 -59 -9 10 -28 36 -11 51 -30 22 -30 -9 0 -12 -6 -9 -15
4 -8 1 -15 -5 -15 -7 0 -14 6 -17 14 -9 24 -77 63 -127 73 l-47 10 21 -29 c26
-36 84 -74 127 -83 32 -7 45 -25 17 -25 -9 0 -12 -6 -9 -15 9 -22 -10 -18 -32
6 -23 25 -54 43 -54 31 0 -5 11 -26 25 -47 27 -39 27 -57 0 -35 -12 10 -15 10
-15 -4 0 -9 -4 -16 -10 -16 -5 0 -10 16 -10 35 0 85 -65 172 -176 235 -65 37
-96 47 -203 68 l-126 23 -199 -32 -199 -33 -251 -144 c-138 -79 -259 -151
-270 -160 -22 -20 -534 -626 -564 -668 -11 -16 -92 -227 -180 -469 -88 -242
-190 -521 -226 -619 l-66 -180 0 -978 0 -978 1985 0 1985 0 0 3950 0 3950
-3980 0 -3980 0 0 -3950z"/>
<path d="M3082 5666 c1 -24 5 -33 15 -29 18 7 17 -12 -2 -27 -8 -7 -15 -19
-15 -26 0 -30 49 -122 88 -164 l41 -45 1 72 c0 85 -27 167 -72 219 -39 44 -58
44 -56 0z"/>
<path d="M4822 5666 c-45 -52 -72 -134 -72 -219 l1 -72 41 45 c39 42 88 134
88 164 0 7 -7 19 -15 26 -19 15 -20 34 -2 27 10 -4 14 5 15 29 2 44 -17 44
-56 0z"/>
<path d="M3289 5647 c-35 -49 -59 -136 -59 -217 0 -65 6 -96 36 -179 20 -56
41 -101 46 -101 7 0 6 5 -1 13 -13 16 -5 28 14 21 7 -3 15 2 18 10 5 11 0 16
-13 16 -11 0 -20 5 -20 10 0 6 7 10 16 10 14 0 14 3 4 15 -17 20 -5 32 15 15
12 -10 16 -9 21 5 5 11 1 21 -10 27 -20 11 -12 30 9 21 11 -4 13 -1 9 11 -3 9
-1 16 5 16 6 0 8 6 5 14 -3 8 -1 17 5 21 14 8 14 124 1 145 -7 11 -25 15 -65
14 -30 -1 -55 2 -55 7 0 5 5 9 11 9 8 0 8 4 0 14 -16 19 4 32 23 16 8 -6 28
-15 44 -20 41 -11 33 12 -14 41 -19 11 -32 25 -28 30 3 5 10 6 16 3 6 -4 8 1
6 11 -5 27 -21 27 -39 2z"/>
<path d="M4629 5648 c-10 -18 -9 -20 5 -15 31 12 25 -12 -8 -32 -47 -29 -55
-52 -14 -41 16 5 36 14 44 20 7 7 18 9 25 5 8 -6 7 -10 -2 -17 -11 -7 -11 -11
-1 -15 28 -11 8 -21 -43 -19 -40 1 -58 -3 -65 -14 -13 -21 -13 -137 1 -145 6
-4 8 -13 5 -21 -3 -8 -1 -14 5 -14 6 0 8 -7 5 -16 -4 -12 -2 -15 9 -11 21 9
29 -10 9 -21 -11 -6 -15 -16 -10 -27 5 -14 9 -15 21 -5 20 17 32 5 15 -15 -10
-12 -10 -15 4 -15 9 0 16 -4 16 -10 0 -5 -9 -10 -20 -10 -13 0 -18 -5 -13 -16
3 -8 11 -13 18 -10 19 7 27 -5 14 -21 -7 -8 -8 -13 -1 -13 5 0 25 39 43 88 44
117 51 228 19 321 -21 62 -48 110 -62 111 -4 0 -12 -10 -19 -22z"/>
<path d="M3930 5449 c-40 -41 -40 -42 -40 -118 0 -64 6 -94 42 -193 23 -65 45
-118 48 -118 3 0 25 53 48 118 36 99 42 129 42 193 0 76 0 77 -40 118 -22 22
-44 41 -50 41 -6 0 -28 -19 -50 -41z"/>
<path d="M2690 5401 c-18 -44 10 -117 73 -192 l52 -61 3 67 c3 76 -19 166 -48
195 -30 30 -65 26 -80 -9z"/>
<path d="M3650 5378 c0 -57 41 -181 70 -211 16 -17 18 -14 49 68 l33 87 -28
29 c-24 25 -106 79 -120 79 -2 0 -4 -24 -4 -52z"/>
<path d="M4255 5405 c-22 -13 -53 -37 -68 -53 l-29 -30 26 -72 c37 -102 39
-105 58 -83 28 33 68 156 68 211 0 28 -3 52 -7 51 -5 -1 -26 -12 -48 -24z"/>
<path d="M5191 5411 c-32 -32 -52 -112 -49 -191 l3 -72 52 61 c63 75 91 148
73 192 -15 34 -50 39 -79 10z"/>
<path d="M2247 5394 c-14 -14 -7 -119 11 -165 9 -26 37 -72 62 -103 l45 -56 3
73 c2 56 -2 88 -18 129 -18 50 -23 55 -45 50 -24 -4 -36 12 -15 20 5 2 0 16
-13 31 -12 16 -26 25 -30 21z"/>
<path d="M5680 5370 c-12 -16 -17 -30 -11 -30 6 0 11 -5 11 -11 0 -7 -10 -9
-25 -7 -22 5 -27 0 -45 -50 -16 -41 -20 -73 -18 -129 l3 -73 45 56 c25 31 53
77 62 103 19 49 24 156 9 166 -5 3 -19 -8 -31 -25z"/>
<path d="M3176 5352 c-4 -7 -2 -12 3 -12 6 0 11 -4 11 -8 0 -5 -26 -9 -57 -9
-43 0 -72 -7 -111 -27 -61 -31 -61 -19 3 -190 40 -108 46 -119 156 -249 l114
-136 3 182 3 182 -42 118 c-43 122 -70 170 -83 149z"/>
<path d="M4756 5338 c-8 -13 -33 -74 -56 -137 l-40 -114 2 -182 3 -183 114
136 c110 129 116 140 156 248 64 171 64 159 3 190 -39 20 -68 27 -110 27 -53
0 -75 10 -46 19 9 3 9 6 0 11 -6 5 -17 -2 -26 -15z"/>
<path d="M3410 5309 c0 -54 124 -142 216 -154 31 -4 58 -4 61 -1 11 11 -74
101 -123 130 -55 33 -154 49 -154 25z"/>
<path d="M4415 5294 c-48 -24 -145 -115 -145 -135 0 -11 30 -11 87 0 80 15
193 103 193 149 0 22 -82 14 -135 -14z"/>
<path d="M3786 5216 c-14 -41 -26 -78 -26 -83 0 -8 181 -116 186 -110 2 2 -13
48 -33 102 -34 94 -74 165 -92 165 -5 0 -20 -33 -35 -74z"/>
<path d="M4113 5268 c-19 -20 -107 -238 -99 -245 5 -6 186 102 186 110 0 17
-53 157 -60 157 -3 0 -16 -10 -27 -22z"/>
<path d="M2888 5181 l-46 -57 91 -51 c50 -29 93 -51 94 -49 6 5 -75 210 -83
213 -5 1 -30 -24 -56 -56z"/>
<path d="M4999 5213 c-22 -58 -69 -187 -69 -191 0 -3 103 52 162 88 l27 16
-47 56 c-26 31 -50 57 -55 57 -4 1 -12 -11 -18 -26z"/>
<path d="M2100 5211 c0 -12 5 -21 10 -21 6 0 10 5 10 12 0 8 3 9 10 2 8 -8 8
-19 0 -38 -13 -35 -13 -69 0 -61 6 4 20 25 32 48 16 30 23 37 26 25 2 -10 10
-18 18 -18 23 0 16 -14 -21 -37 -62 -41 -61 -52 5 -131 48 -57 79 -81 157
-126 53 -30 99 -54 100 -52 2 2 -14 51 -35 108 -30 83 -51 120 -93 171 -55 65
-132 119 -188 132 -27 6 -31 4 -31 -14z"/>
<path d="M5815 5222 c-55 -18 -125 -70 -174 -129 -42 -51 -63 -89 -93 -171
-21 -57 -37 -106 -35 -108 1 -2 47 22 100 52 78 45 109 69 157 126 66 79 67
90 5 131 -37 23 -44 37 -21 37 8 0 17 6 20 13 4 7 8 8 11 2 3 -5 15 -26 27
-45 17 -28 23 -31 26 -17 2 10 -1 32 -7 49 -8 22 -8 35 -1 42 7 7 10 6 10 -2
0 -20 17 -14 23 8 5 21 -8 24 -48 12z"/>
<path d="M2563 5130 c-45 -9 -118 -53 -127 -76 -3 -8 -10 -14 -17 -14 -6 0 -9
7 -5 15 3 9 0 15 -9 15 -22 0 -20 -7 34 -154 48 -133 48 -133 162 -268 l114
-136 3 187 2 186 -36 100 c-41 113 -61 156 -72 154 -4 -1 -26 -5 -49 -9z"/>
<path d="M2660 5128 c0 -13 68 -207 75 -216 2 -2 75 195 75 202 0 2 -24 7 -52
10 -29 4 -63 10 -75 13 -16 3 -23 1 -23 -9z"/>
<path d="M3477 5130 c-46 -12 -83 -34 -119 -73 l-28 -28 0 -177 0 -177 92
-257 c51 -142 95 -258 98 -258 3 0 49 121 103 270 l97 269 0 174 c0 208 -4
235 -38 248 -37 14 -162 20 -205 9z"/>
<path d="M4311 5130 c-25 -5 -49 -14 -55 -20 -7 -7 -11 -86 -11 -223 l0 -212
95 -257 c52 -142 97 -258 100 -258 3 0 47 116 98 258 l92 257 0 177 0 177 -27
29 c-61 66 -181 95 -292 72z"/>
<path d="M5215 5127 c-33 -5 -61 -11 -63 -12 -1 -1 14 -48 34 -104 20 -56 38
-100 39 -99 7 9 75 203 75 215 0 15 -1 15 -85 0z"/>
<path d="M5331 5121 c-5 -9 -28 -66 -50 -125 l-40 -107 -1 -185 c-1 -102 0
-187 2 -189 2 -2 54 58 117 132 l114 136 49 134 c27 74 46 138 43 143 -10 16
-25 11 -19 -5 9 -23 -5 -18 -36 14 -55 54 -162 86 -179 52z"/>
<path d="M2825 5083 c-4 -10 -22 -60 -41 -112 l-34 -93 0 -207 0 -207 100
-273 c55 -150 108 -284 117 -297 10 -12 135 -162 278 -331 l260 -309 3 429 2
429 -102 281 -103 282 -130 154 c-124 147 -134 156 -230 212 -55 32 -103 58
-106 59 -4 0 -10 -8 -14 -17z"/>
<path d="M3740 4908 c0 -105 3 -189 6 -186 19 20 214 254 214 258 0 7 -199
120 -211 120 -5 0 -9 -79 -9 -192z"/>
<path d="M4098 5042 c-54 -31 -98 -59 -98 -62 0 -4 183 -224 211 -254 5 -6 9
68 9 182 0 147 -3 192 -12 191 -7 0 -57 -26 -110 -57z"/>
<path d="M5015 5041 c-96 -56 -106 -65 -230 -212 l-130 -154 -102 -281 -103
-281 0 -432 0 -432 268 318 c147 175 273 326 280 335 7 9 58 139 112 289 l100
273 -1 211 0 210 -38 105 c-21 57 -42 105 -47 107 -5 1 -54 -24 -109 -56z"/>
<path d="M1780 4933 c0 -98 105 -251 216 -313 33 -18 78 -44 101 -57 l43 -25
-35 97 c-20 53 -40 107 -47 118 -15 31 -118 147 -129 147 -5 0 -26 -16 -48
-35 -41 -38 -57 -44 -47 -20 3 9 0 15 -9 15 -29 0 -14 19 23 30 68 19 72 30
10 30 -32 0 -58 5 -58 10 0 6 8 10 18 10 14 0 15 2 2 10 -26 17 -40 11 -40
-17z"/>
<path d="M3856 4818 l-119 -142 -103 -283 -104 -284 0 -442 0 -442 222 -607
c122 -335 224 -608 228 -608 3 0 106 273 228 608 l222 607 0 443 0 443 -104
283 -104 284 -116 138 c-65 77 -120 140 -124 141 -4 2 -61 -61 -126 -139z"/>
<path d="M6140 4950 c-13 -8 -12 -10 3 -10 9 0 17 -4 17 -10 0 -5 -26 -10 -57
-10 -63 0 -59 -11 10 -30 36 -11 51 -30 22 -30 -9 0 -12 -6 -9 -15 10 -24 -6
-18 -47 20 -22 19 -43 35 -48 35 -11 0 -114 -116 -129 -147 -7 -11 -27 -65
-47 -118 l-35 -97 43 25 c23 13 68 39 101 57 78 44 175 158 199 232 28 91 20
126 -23 98z"/>
<path d="M2080 4849 c0 -70 6 -98 43 -201 l42 -120 130 -157 131 -156 248
-143 c152 -87 246 -135 241 -125 -4 10 -45 124 -92 253 -47 129 -91 246 -99
260 -7 14 -68 90 -136 169 -120 140 -126 146 -234 207 -88 51 -127 67 -190 79
-43 8 -80 15 -81 15 -2 0 -3 -36 -3 -81z"/>
<path d="M5786 4914 c-52 -10 -98 -30 -183 -80 -111 -65 -116 -69 -236 -211
-67 -80 -127 -155 -133 -166 -7 -12 -50 -128 -97 -257 -47 -129 -89 -243 -92
-253 -5 -11 88 37 241 125 l248 143 130 156 131 157 43 120 c36 103 42 131 42
201 0 59 -3 81 -12 80 -7 -1 -44 -8 -82 -15z"/>
<path d="M1603 4843 c-30 -11 7 -57 39 -48 16 6 19 2 16 -21 -3 -22 4 -31 43
-56 44 -27 143 -53 174 -46 25 5 -78 111 -136 140 -55 27 -114 40 -136 31z"/>
<path d="M6280 4836 c-63 -17 -119 -55 -169 -115 -40 -48 -41 -51 -19 -51 46
0 134 27 176 53 37 24 41 31 36 53 -6 23 -4 25 14 20 12 -4 26 -1 36 9 20 21
20 31 0 39 -19 7 -19 7 -74 -8z"/>
<path d="M1672 4653 c-18 -4 -22 -9 -16 -26 17 -56 35 -87 87 -147 44 -52 77
-78 169 -130 l113 -64 180 -32 c99 -18 181 -31 182 -30 1 1 -51 64 -117 141
-115 136 -121 142 -229 204 -74 42 -132 68 -174 77 -60 13 -147 16 -195 7z"/>
<path d="M6088 4646 c-33 -8 -103 -39 -169 -77 -109 -62 -114 -67 -229 -204
-65 -77 -118 -141 -117 -142 1 -1 83 13 182 31 l180 32 114 64 c95 55 123 76
172 135 54 64 97 150 83 164 -11 12 -161 10 -216 -3z"/>
<path d="M1463 4603 c-10 -3 -10 -11 1 -31 34 -65 118 -116 223 -135 l72 -14
-28 36 c-46 58 -78 87 -125 112 -42 22 -46 22 -64 6 -22 -20 -38 -11 -19 11
10 13 9 15 -5 9 -10 -3 -20 -2 -23 3 -7 11 -13 11 -32 3z"/>
<path d="M6465 4600 c-3 -5 -13 -6 -23 -3 -14 6 -15 4 -5 -9 19 -22 3 -31 -19
-11 -18 16 -22 16 -64 -6 -46 -25 -91 -65 -126 -113 -23 -32 -20 -33 66 -17
86 16 170 70 202 131 12 23 12 27 -2 32 -20 8 -22 8 -29 -4z"/>
<path d="M1510 4407 c-73 -27 -75 -30 -43 -63 48 -48 121 -81 209 -94 70 -10
97 -10 185 5 57 9 107 20 111 24 15 13 -175 112 -242 127 -80 17 -174 17 -220
1z"/>
<path d="M6225 4406 c-62 -14 -251 -115 -237 -127 4 -3 53 -14 110 -24 89 -15
114 -16 185 -5 89 13 162 46 210 94 l29 30 -38 20 c-50 25 -176 31 -259 12z"/>
<path d="M1498 4231 c-41 -8 -118 -55 -118 -71 0 -28 120 -40 193 -19 21 5 63
25 93 43 50 30 53 34 32 40 -40 11 -162 15 -200 7z"/>
<path d="M6281 4229 l-43 -11 56 -34 c84 -50 195 -69 261 -44 35 13 28 29 -26
63 -37 22 -60 28 -124 32 -44 2 -100 -1 -124 -6z"/>
</g>
</svg>
